<svg width="74" height="74" viewBox="0 0 74 74" fill="none" xmlns="http://www.w3.org/2000/svg">
<circle cx="37" cy="37" r="37" fill="#E2F3F3"/>
<path d="M17.2361 30.6234C17.3548 30.9128 17.6511 31.1045 17.964 31.0936C18.2793 31.0827 18.5571 30.8738 18.6603 30.577C18.7631 30.2814 18.663 29.9417 18.4224 29.7437C18.17 29.5361 17.8015 29.5148 17.5268 29.692C17.2218 29.8886 17.0964 30.2881 17.2361 30.6234V30.6234Z" fill="#D63E2A"/>
<path d="M48.6163 36.4615C48.691 36.2691 48.7597 36.0771 48.8222 35.8864C49.2427 34.6037 49.4144 33.2996 49.3475 31.8998C49.2364 29.5809 48.1632 27.3515 46.3257 25.6222C44.5615 23.962 42.3198 23.0098 40.1755 23.0098C36.9809 23.0098 34.4842 24.7932 33.2802 25.8563C33.1906 25.9354 33.0601 25.9371 32.9699 25.86C31.722 24.7955 29.1702 23.0098 26.1002 23.0098C23.5634 23.0098 20.8628 24.3785 19.0525 26.5818C18.7854 26.9068 18.8323 27.3868 19.1574 27.6539C19.4825 27.921 19.9624 27.874 20.2295 27.549C21.7579 25.6889 24.0075 24.5333 26.1002 24.5333C28.6816 24.5333 30.8928 26.0908 31.9811 27.0191C32.6433 27.584 33.6353 27.5751 34.2886 26.9983C35.3311 26.0777 37.4824 24.5333 40.1754 24.5333C43.6185 24.5333 47.6217 27.7148 47.8257 31.9727C47.8836 33.1837 47.7359 34.3088 47.3743 35.412C47.2887 35.6733 47.1923 35.9309 47.0825 36.1913C46.7765 36.1623 46.4666 36.1474 46.1532 36.1474C40.7237 36.1474 36.3064 40.5977 36.3064 46.0679C36.3064 46.3266 36.3163 46.583 36.3358 46.8368C35.5823 47.4513 34.9699 47.9544 34.4582 48.3875C33.6854 49.0417 32.5639 49.0415 31.7913 48.3871C31.1001 47.8014 30.2014 47.0692 29.25 46.2939C25.816 43.4956 21.1128 39.6632 19.9807 37.7397C19.2363 36.4751 18.7916 35.3297 18.581 34.135C18.5567 33.9969 18.5352 33.8565 18.5172 33.7177C18.4631 33.3005 18.081 33.0062 17.6638 33.0603C17.2466 33.1145 16.9523 33.4966 17.0064 33.9137C17.0274 34.0754 17.0524 34.2388 17.0808 34.3994C17.3239 35.779 17.8282 37.0859 18.6678 38.5124C19.9386 40.6715 24.5679 44.4437 28.2877 47.4748C29.2334 48.2454 30.1265 48.9732 30.8065 49.5494C31.4782 50.1184 32.3015 50.4029 33.125 50.4029C33.9479 50.4029 34.771 50.1186 35.4425 49.5503C35.7846 49.2607 36.1743 48.9379 36.6235 48.5693C37.7267 52.8326 41.581 55.9885 46.1532 55.9885C51.5827 55.9885 55.9999 51.5381 55.9999 46.0679C56.0001 41.4542 52.8579 37.5659 48.6163 36.4615V36.4615ZM46.1534 54.465C41.5638 54.465 37.8299 50.698 37.8299 46.0679C37.8299 41.4377 41.5638 37.6708 46.1534 37.6708C50.7429 37.6708 54.4767 41.4377 54.4767 46.0679C54.4767 50.698 50.7429 54.465 46.1534 54.465Z" fill="#D63E2A"/>
<path d="M49.8015 43.4508H48.7546V42.388C48.7546 41.4536 47.9978 40.6934 47.0675 40.6934H45.2385C44.3083 40.6934 43.5514 41.4536 43.5514 42.388V43.4508H42.5045C41.5742 43.4508 40.8174 44.211 40.8174 45.1455V46.9907C40.8174 47.9252 41.5742 48.6854 42.5045 48.6854H43.5514V49.7482C43.5514 50.6826 44.3083 51.4429 45.2385 51.4429H47.0675C47.9978 51.4429 48.7546 50.6827 48.7546 49.7482V48.6854H49.8015C50.7318 48.6854 51.4887 47.9252 51.4887 46.9907V45.1455C51.4888 44.211 50.7318 43.4508 49.8015 43.4508ZM49.9653 46.9906C49.9653 47.085 49.8919 47.1619 49.8016 47.1619H47.993C47.5724 47.1619 47.2313 47.5029 47.2313 47.9236V49.7481C47.2313 49.8425 47.1578 49.9194 47.0676 49.9194H45.2386C45.1483 49.9194 45.0749 49.8426 45.0749 49.7481V47.9236C45.0749 47.5029 44.7338 47.1619 44.3132 47.1619H42.5046C42.4142 47.1619 42.3409 47.0851 42.3409 46.9906V45.1454C42.3409 45.0509 42.4143 44.9741 42.5046 44.9741H44.3132C44.7338 44.9741 45.0749 44.6331 45.0749 44.2124V42.388C45.0749 42.2935 45.1484 42.2167 45.2386 42.2167H47.0676C47.1578 42.2167 47.2313 42.2935 47.2313 42.388V44.2124C47.2313 44.6331 47.5724 44.9741 47.993 44.9741H49.8016C49.892 44.9741 49.9653 45.0509 49.9653 45.1454V46.9906Z" fill="#D63E2A"/>
</svg>
