<svg width="17" height="14" viewBox="0 0 17 14" fill="none" xmlns="http://www.w3.org/2000/svg">
<path fill-rule="evenodd" clip-rule="evenodd" d="M7.48213 0.256725C8.11679 -0.085575 8.88321 -0.085575 9.51787 0.256725L16.631 4.09063C16.8583 4.21313 17 4.44903 17 4.70523V11.7052C17 12.8651 16.0487 13.8052 14.875 13.8052H2.125C0.951292 13.8052 0 12.8651 0 11.7052V4.70523C0 4.44903 0.141667 4.21313 0.369042 4.09063L7.48213 0.256725ZM8.83929 1.48522C8.6275 1.37112 8.37179 1.37112 8.16071 1.48522L2.18733 4.70523L8.16071 7.92522C8.37179 8.03932 8.6275 8.03932 8.83929 7.92522L14.8127 4.70523L8.83929 1.48522ZM15.5833 5.88473L9.51787 9.15372C8.88321 9.49602 8.11679 9.49602 7.48213 9.15372L1.41667 5.88473V11.7052C1.41667 12.0916 1.734 12.4052 2.125 12.4052H14.875C15.266 12.4052 15.5833 12.0916 15.5833 11.7052V5.88473Z" fill="#1800FF"/>
</svg>
