<svg width="20" height="39" viewBox="0 0 20 39" fill="none" xmlns="http://www.w3.org/2000/svg">
<mask id="mask0" mask-type="alpha" maskUnits="userSpaceOnUse" x="0" y="0" width="19" height="39">
<path d="M12.4107 39V19.4977H17.9322L18.664 12.7771H12.4107L12.4201 9.4134C12.4201 7.66056 12.5909 6.72136 15.173 6.72136H18.6249V0H13.1026C6.4694 0 4.13469 3.26021 4.13469 8.74286V12.7779H0V19.4985H4.13469V39H12.4107Z" fill="white"/>
</mask>
<g mask="url(#mask0)">
<path d="M12.4107 39V19.4977H17.9322L18.664 12.7771H12.4107L12.4201 9.4134C12.4201 7.66056 12.5909 6.72136 15.173 6.72136H18.6249V0H13.1026C6.4694 0 4.13469 3.26021 4.13469 8.74286V12.7779H0V19.4985H4.13469V39H12.4107Z" fill="#1800FF"/>
<path d="M22.5 -2.4375H-2.5C-8.02285 -2.4375 -12.5 1.92772 -12.5 7.3125V31.6875C-12.5 37.0723 -8.02285 41.4375 -2.5 41.4375H22.5C28.0228 41.4375 32.5 37.0723 32.5 31.6875V7.3125C32.5 1.92772 28.0228 -2.4375 22.5 -2.4375Z" fill="#1800FF"/>
</g>
</svg>
