<svg width="39" height="39" viewBox="0 0 39 39" fill="none" xmlns="http://www.w3.org/2000/svg">
<mask id="mask0" mask-type="alpha" maskUnits="userSpaceOnUse" x="0" y="0" width="39" height="39">
<path d="M17.3646 0V0.00594686L21.4183 0.00688483C26.0386 0.0121382 26.881 0.0414068 29.1104 0.142721C31.4296 0.248771 32.6883 0.636298 33.5268 0.96188C34.6369 1.39302 35.4283 1.9084 36.2603 2.74094C37.0929 3.57348 37.6082 4.36637 38.0404 5.47642C38.3659 6.31392 38.754 7.57264 38.8595 9.89185C38.9566 12.0279 38.989 12.8909 38.9964 17.0239V21.9776C38.989 26.1105 38.9566 26.9736 38.8595 29.1096C38.7535 31.4288 38.3659 32.6876 38.0404 33.5251C37.6092 34.6351 37.0929 35.4255 36.2603 36.2576C35.4278 37.0901 34.6374 37.6055 33.5268 38.0366C32.6893 38.3637 31.4296 38.7502 29.1104 38.8563C26.9743 38.9534 26.1113 38.9857 21.9766 38.9932H17.0203C12.8854 38.9857 12.0227 38.9534 9.88666 38.8563C7.56744 38.7492 6.30873 38.3617 5.46974 38.0361C4.35969 37.605 3.5668 37.0896 2.73426 36.2571C1.90172 35.4245 1.38634 34.6336 0.95421 33.5231C0.628628 32.6856 0.240605 31.4269 0.135051 29.1076C0.037958 26.9716 0.00703224 26.1086 0 21.9732V17.0166C0.00703224 12.8821 0.037958 12.0219 0.135051 9.88591C0.241101 7.56669 0.628628 6.30797 0.95421 5.46948C1.38535 4.35943 1.90172 3.56654 2.73426 2.734C3.5668 1.90146 4.35969 1.38608 5.46974 0.953951C6.30823 0.626882 7.56744 0.240346 9.88666 0.133801C12.081 0.0346891 12.9314 0.00495558 17.3646 0ZM19.4983 7.29056C12.7525 7.29066 7.28299 12.7602 7.28299 19.5062C7.28299 26.2522 12.7525 31.7192 19.4985 31.7192C26.2446 31.7192 31.7121 26.2522 31.7121 19.5062C31.7121 12.9377 26.5281 7.57942 20.0279 7.30195L19.4983 7.29056ZM19.4985 11.5772C23.8773 11.5772 27.4275 15.1269 27.4275 19.5062C27.4275 23.885 23.8773 27.4351 19.4985 27.4351C15.1193 27.4351 11.5696 23.885 11.5696 19.5062C11.5696 15.1269 15.1193 11.5772 19.4985 11.5772ZM32.1957 3.95456C30.6199 3.95555 29.3413 5.23261 29.3413 6.80898C29.3413 8.38486 30.6199 9.6634 32.1957 9.6634C33.7716 9.6634 35.0502 8.38486 35.0502 6.80898C35.0502 5.2331 33.7716 3.95456 32.1957 3.95456Z" fill="white"/>
</mask>
<g mask="url(#mask0)">
<path d="M17.3646 0V0.00594686L21.4183 0.00688483C26.0386 0.0121382 26.881 0.0414068 29.1104 0.142721C31.4296 0.248771 32.6883 0.636298 33.5268 0.96188C34.6369 1.39302 35.4283 1.9084 36.2603 2.74094C37.0929 3.57348 37.6082 4.36637 38.0404 5.47642C38.3659 6.31392 38.754 7.57264 38.8595 9.89185C38.9566 12.0279 38.989 12.8909 38.9964 17.0239V21.9776C38.989 26.1105 38.9566 26.9736 38.8595 29.1096C38.7535 31.4288 38.3659 32.6876 38.0404 33.5251C37.6092 34.6351 37.0929 35.4255 36.2603 36.2576C35.4278 37.0901 34.6374 37.6055 33.5268 38.0366C32.6893 38.3637 31.4296 38.7502 29.1104 38.8563C26.9743 38.9534 26.1113 38.9857 21.9766 38.9932H17.0203C12.8854 38.9857 12.0227 38.9534 9.88666 38.8563C7.56744 38.7492 6.30873 38.3617 5.46974 38.0361C4.35969 37.605 3.5668 37.0896 2.73426 36.2571C1.90172 35.4245 1.38634 34.6336 0.95421 33.5231C0.628628 32.6856 0.240605 31.4269 0.135051 29.1076C0.037958 26.9716 0.00703224 26.1086 0 21.9732V17.0166C0.00703224 12.8821 0.037958 12.0219 0.135051 9.88591C0.241101 7.56669 0.628628 6.30797 0.95421 5.46948C1.38535 4.35943 1.90172 3.56654 2.73426 2.734C3.5668 1.90146 4.35969 1.38608 5.46974 0.953951C6.30823 0.626882 7.56744 0.240346 9.88666 0.133801C12.081 0.0346891 12.9314 0.00495558 17.3646 0ZM19.4983 7.29056C12.7525 7.29066 7.28299 12.7602 7.28299 19.5062C7.28299 26.2522 12.7525 31.7192 19.4985 31.7192C26.2446 31.7192 31.7121 26.2522 31.7121 19.5062C31.7121 12.9377 26.5281 7.57942 20.0279 7.30195L19.4983 7.29056ZM19.4985 11.5772C23.8773 11.5772 27.4275 15.1269 27.4275 19.5062C27.4275 23.885 23.8773 27.4351 19.4985 27.4351C15.1193 27.4351 11.5696 23.885 11.5696 19.5062C11.5696 15.1269 15.1193 11.5772 19.4985 11.5772ZM32.1957 3.95456C30.6199 3.95555 29.3413 5.23261 29.3413 6.80898C29.3413 8.38486 30.6199 9.6634 32.1957 9.6634C33.7716 9.6634 35.0502 8.38486 35.0502 6.80898C35.0502 5.2331 33.7716 3.95456 32.1957 3.95456Z" fill="#1800FF"/>
<path d="M31.6865 -2.4375H7.31152C1.92675 -2.4375 -2.43848 1.92772 -2.43848 7.3125V31.6875C-2.43848 37.0723 1.92675 41.4375 7.31152 41.4375H31.6865C37.0713 41.4375 41.4365 37.0723 41.4365 31.6875V7.3125C41.4365 1.92772 37.0713 -2.4375 31.6865 -2.4375Z" fill="#1800FF"/>
</g>
</svg>
