<svg width="39" height="38" viewBox="0 0 39 38" fill="none" xmlns="http://www.w3.org/2000/svg">
<mask id="mask0" mask-type="alpha" maskUnits="userSpaceOnUse" x="0" y="0" width="39" height="38">
<path d="M8.85351 12.1076V37.2236H0.494301V12.1076H8.85351ZM29.3754 11.5179C34.8762 11.5179 39 15.1083 39 22.8229L38.9997 37.2236H30.6408V23.7865C30.6408 20.4114 29.4312 18.1084 26.4051 18.1084C24.0957 18.1084 22.7201 19.661 22.116 21.1606C21.895 21.698 21.8407 22.4468 21.8407 23.1974V37.2243H13.4805C13.4805 37.2243 13.5907 14.4651 13.4805 12.1083H21.8407V15.6658C22.9502 13.9556 24.9372 11.5179 29.3754 11.5179ZM4.72916 0C7.58879 0 9.34981 1.87567 9.40407 4.33827C9.40407 6.74986 7.58879 8.67954 4.67407 8.67954H4.62065C1.81427 8.67954 0 6.74986 0 4.33827C0 1.87567 1.86953 0 4.72916 0Z" fill="white"/>
</mask>
<g mask="url(#mask0)">
<path d="M8.85351 12.1076V37.2236H0.494301V12.1076H8.85351ZM29.3754 11.5179C34.8762 11.5179 39 15.1083 39 22.8229L38.9997 37.2236H30.6408V23.7865C30.6408 20.4114 29.4312 18.1084 26.4051 18.1084C24.0957 18.1084 22.7201 19.661 22.116 21.1606C21.895 21.698 21.8407 22.4468 21.8407 23.1974V37.2243H13.4805C13.4805 37.2243 13.5907 14.4651 13.4805 12.1083H21.8407V15.6658C22.9502 13.9556 24.9372 11.5179 29.3754 11.5179ZM4.72916 0C7.58879 0 9.34981 1.87567 9.40407 4.33827C9.40407 6.74986 7.58879 8.67954 4.67407 8.67954H4.62065C1.81427 8.67954 0 6.74986 0 4.33827C0 1.87567 1.86953 0 4.72916 0Z" fill="#1800FF"/>
<path d="M31.6875 -2.4375H7.3125C1.92772 -2.4375 -2.4375 1.92772 -2.4375 7.3125V31.6875C-2.4375 37.0723 1.92772 41.4375 7.3125 41.4375H31.6875C37.0723 41.4375 41.4375 37.0723 41.4375 31.6875V7.3125C41.4375 1.92772 37.0723 -2.4375 31.6875 -2.4375Z" fill="#1800FF"/>
</g>
</svg>
