<svg width="12" height="18" viewBox="0 0 12 18" fill="none" xmlns="http://www.w3.org/2000/svg">
<path fill-rule="evenodd" clip-rule="evenodd" d="M6 1.46874C3.42267 1.46874 1.33333 3.76731 1.33333 6.60932C1.33333 8.68758 2.174 10.7071 3.21533 12.3888C4.22667 14.0338 5.38667 15.2969 6 15.9138C6.61333 15.2969 7.77333 14.0338 8.78467 12.3888C9.826 10.7071 10.6667 8.68758 10.6667 6.60932C10.6667 3.76731 8.57733 1.46874 6 1.46874ZM0 6.60932C0 2.9595 2.686 0 6 0C9.314 0 12 2.9595 12 6.60932C12 9.10617 10.9993 11.4121 9.888 13.2186C8.77067 15.0252 7.49733 16.3984 6.85333 17.0447C6.366 17.5294 5.634 17.5294 5.14667 17.0447C4.50267 16.3984 3.22933 15.0252 2.112 13.2186C1.00067 11.4121 0 9.10617 0 6.60932ZM6 5.14058C5.264 5.14058 4.66667 5.80151 4.66667 6.60932C4.66667 7.41712 5.264 8.07805 6 8.07805C6.736 8.07805 7.33333 7.41712 7.33333 6.60932C7.33333 5.80151 6.736 5.14058 6 5.14058ZM3.33333 6.60932C3.33333 4.98636 4.52733 3.67184 6 3.67184C7.47267 3.67184 8.66667 4.98636 8.66667 6.60932C8.66667 8.23227 7.47267 9.54679 6 9.54679C4.52733 9.54679 3.33333 8.23227 3.33333 6.60932Z" fill="#1800FF"/>
</svg>
