<svg width="15" height="14" viewBox="0 0 15 14" fill="none" xmlns="http://www.w3.org/2000/svg">
<g clip-path="url(#clip0)">
<path fill-rule="evenodd" clip-rule="evenodd" d="M2.46505 1.27794C2.09317 1.27794 1.85739 1.56803 1.88614 1.85173C2.45418 7.58776 7.01771 12.1513 12.7537 12.7193C13.0374 12.7481 13.3275 12.5123 13.3275 12.1404V9.86633C13.3275 9.59157 13.1518 9.34749 12.8905 9.26059L10.6796 8.52322C10.4502 8.44718 10.1972 8.5066 10.026 8.67785L9.67198 9.03184C9.24899 9.45483 8.57423 9.53598 8.0637 9.18647C6.85477 8.35964 6.15126 7.66061 5.40047 6.53091C5.06118 6.01973 5.15 5.35648 5.56597 4.94115L5.92762 4.5795C6.09887 4.40825 6.15829 4.15522 6.08161 3.92583L5.34488 1.71499C5.25798 1.45366 5.0139 1.27794 4.73914 1.27794H2.46505ZM0.61459 1.97825C0.503409 0.857497 1.42544 0 2.46505 0H4.73914C5.56405 0 6.29631 0.527789 6.55701 1.31053L7.29438 3.52136C7.52377 4.21017 7.34486 4.96991 6.83112 5.483L6.47522 5.83891C7.12058 6.80758 7.70076 7.38904 8.77295 8.12386L9.12247 7.77434C9.63556 7.26061 10.3953 7.0817 11.0841 7.31109L13.2949 8.04846C14.0777 8.30916 14.6055 9.04142 14.6055 9.86633V12.1404C14.6055 13.18 13.748 14.1021 12.6272 13.9909C6.28545 13.3628 1.2427 8.32002 0.61459 1.97825ZM9.49371 0.638969C9.49371 0.286258 9.77997 0 10.1327 0C12.6029 0 14.6055 2.00253 14.6055 4.47279C14.6055 4.8255 14.3192 5.11176 13.9665 5.11176C13.6138 5.11176 13.3275 4.8255 13.3275 4.47279C13.3275 2.70859 11.8969 1.27794 10.1327 1.27794C9.77997 1.27794 9.49371 0.991681 9.49371 0.638969ZM9.49371 3.19485C9.49371 2.84214 9.77997 2.55588 10.1327 2.55588C11.1915 2.55588 12.0496 3.41401 12.0496 4.47279C12.0496 4.8255 11.7633 5.11176 11.4106 5.11176C11.0579 5.11176 10.7717 4.8255 10.7717 4.47279C10.7717 4.12008 10.4854 3.83382 10.1327 3.83382C9.77997 3.83382 9.49371 3.54756 9.49371 3.19485Z" fill="#1800FF"/>
</g>
<defs>
<clipPath id="clip0">
<rect width="14" height="14" fill="white" transform="translate(0.605469)"/>
</clipPath>
</defs>
</svg>
