<svg width="39" height="33" viewBox="0 0 39 33" fill="none" xmlns="http://www.w3.org/2000/svg">
<mask id="mask0" mask-type="alpha" maskUnits="userSpaceOnUse" x="0" y="0" width="39" height="33">
<path d="M18.9367 8.54209L19.0213 9.93099L17.6123 9.76092C12.4836 9.10899 8.00302 6.89808 4.19877 3.1849L2.33891 1.34248L1.85986 2.70304C0.84539 5.73594 1.49352 8.93892 3.607 11.0931C4.73418 12.2836 4.48056 12.4537 2.53617 11.7451C1.85986 11.5183 1.26808 11.3482 1.21173 11.4333C1.01447 11.6317 1.69078 14.2111 2.22619 15.2315C2.95886 16.6487 4.45239 18.0376 6.0868 18.8596L7.46761 19.5116L5.83319 19.5399C4.25513 19.5399 4.19877 19.5683 4.36785 20.1635C4.93144 22.0059 7.15763 23.9617 9.63744 24.8121L11.3846 25.4073L9.86288 26.3144C7.60851 27.6182 4.95962 28.3552 2.31073 28.4119C1.04265 28.4402 0 28.5536 0 28.6386C0 28.9221 3.43792 30.5094 5.43867 31.133C11.4409 32.9754 18.5704 32.1818 23.9245 29.0355C27.7288 26.7962 31.533 22.3461 33.3083 18.0376C34.2665 15.7417 35.2246 11.5467 35.2246 9.53416C35.2246 8.2303 35.3091 8.06023 36.8872 6.50126C37.8171 5.59422 38.6907 4.60215 38.8597 4.3187C39.1415 3.78014 39.1134 3.78014 37.6762 4.26201C35.2809 5.11235 34.9428 4.99897 36.1263 3.72345C36.9999 2.81642 38.0425 1.17241 38.0425 0.690546C38.0425 0.605511 37.6198 0.747236 37.1408 1.00234C36.6335 1.28579 35.5064 1.71096 34.661 1.96607L33.1393 2.44793L31.7585 1.51255C30.9976 1.00234 29.9268 0.435442 29.3632 0.265372C27.926 -0.131457 25.728 -0.0747669 24.4318 0.378752C20.9093 1.65427 18.6831 4.94229 18.9367 8.54209Z" fill="white"/>
</mask>
<g mask="url(#mask0)">
<path d="M26.038 11.6287L26.1542 13.5195L24.2169 13.2879C17.1649 12.4004 11.0042 9.39063 5.77331 4.33573L3.216 1.82757L2.5573 3.67975C1.16241 7.80856 2.05359 12.1689 4.95962 15.1015C6.5095 16.7222 6.16078 16.9537 3.48723 15.989C2.5573 15.6803 1.74362 15.4488 1.66612 15.5646C1.39489 15.8347 2.32482 19.3461 3.06101 20.7352C4.06844 22.6646 6.12203 24.5554 8.36936 25.6744L10.268 26.5619L8.02063 26.6005C5.8508 26.6005 5.77331 26.6391 6.00579 27.4494C6.78073 29.9575 9.84174 32.62 13.2515 33.7777L15.6538 34.588L13.5615 35.8228C10.4617 37.5978 6.81948 38.601 3.17726 38.6782C1.43364 38.7168 0 38.8712 0 38.9869C0 39.3728 4.72714 41.5337 7.47817 42.3826C15.7313 44.8907 25.5343 43.8103 32.8962 39.5271C38.1271 36.4788 43.3579 30.4206 45.799 24.5553C47.1164 21.4298 48.4338 15.7189 48.4338 12.9792C48.4338 11.2042 48.55 10.9727 50.7199 8.85042C51.9985 7.61563 53.1997 6.26508 53.4321 5.87921C53.8196 5.14606 53.7809 5.14606 51.8048 5.80204C48.5113 6.95965 48.0463 6.8053 49.6737 5.06888C50.8748 3.8341 52.3085 1.59605 52.3085 0.940067C52.3085 0.824306 51.7273 1.01724 51.0686 1.36452C50.3711 1.7504 48.8212 2.3292 47.6588 2.67649L45.5665 3.33247L43.6679 2.05909C42.6217 1.36453 41.1493 0.592784 40.3744 0.361262C38.3983 -0.178957 35.376 -0.101783 33.5937 0.51561C28.7503 2.25203 25.6893 6.72813 26.038 11.6287Z" fill="#212B36"/>
<path d="M31.6875 -4.85742H7.3125C1.92772 -4.85742 -2.4375 -0.508187 -2.4375 4.85687V29.1426C-2.4375 34.5076 1.92772 38.8569 7.3125 38.8569H31.6875C37.0723 38.8569 41.4375 34.5076 41.4375 29.1426V4.85687C41.4375 -0.508187 37.0723 -4.85742 31.6875 -4.85742Z" fill="#1800FF"/>
</g>
</svg>
