<svg width="13" height="17" viewBox="0 0 13 17" fill="none" xmlns="http://www.w3.org/2000/svg">
<mask id="mask0" mask-type="alpha" maskUnits="userSpaceOnUse" x="0" y="0" width="13" height="17">
<path d="M6.21937 0C2.77799 0 0 2.75957 0 6.17813C0 10.2969 6.21937 16.475 6.21937 16.475C6.21937 16.475 12.4387 10.2969 12.4387 6.17813C12.4387 2.75957 9.66076 0 6.21937 0ZM6.21937 2.05938C8.52054 2.05938 10.3656 3.91282 10.3656 6.17813C10.3656 8.46404 8.52054 10.2969 6.21937 10.2969C3.93894 10.2969 2.07312 8.46404 2.07312 6.17813C2.07312 3.91282 3.93894 2.05938 6.21937 2.05938Z" fill="white"/>
</mask>
<g mask="url(#mask0)">
<path d="M6.21937 0C2.77799 0 0 2.75957 0 6.17813C0 10.2969 6.21937 16.475 6.21937 16.475C6.21937 16.475 12.4387 10.2969 12.4387 6.17813C12.4387 2.75957 9.66076 0 6.21937 0ZM6.21937 2.05938C8.52054 2.05938 10.3656 3.91282 10.3656 6.17813C10.3656 8.46404 8.52054 10.2969 6.21937 10.2969C3.93894 10.2969 2.07312 8.46404 2.07312 6.17813C2.07312 3.91282 3.93894 2.05938 6.21937 2.05938Z" fill="#212B36"/>
<path d="M12.8119 -1.0293H-0.372533C-1.88405 -1.0293 -3.10938 0.188489 -3.10938 1.6907V14.7851C-3.10938 16.2873 -1.88405 17.5051 -0.372533 17.5051H12.8119C14.3234 17.5051 15.5487 16.2873 15.5487 14.7851V1.6907C15.5487 0.188489 14.3234 -1.0293 12.8119 -1.0293Z" fill="#1800FF"/>
</g>
</svg>
