<svg width="16" height="16" viewBox="0 0 16 16" fill="none" xmlns="http://www.w3.org/2000/svg">
<path d="M6.62632 9.37484C5.09914 7.84766 4.75432 6.32049 4.67652 5.70863C4.65478 5.53945 4.713 5.36978 4.83404 5.24959L6.0699 4.01428C6.2517 3.8326 6.28396 3.54945 6.14769 3.33153L4.17997 0.276077C4.02922 0.034766 3.71968 -0.0523254 3.46521 0.0749733L0.306316 1.5627C0.100539 1.66402 -0.0204961 1.88266 0.00286758 2.11084C0.168385 3.68325 0.853902 7.54863 4.65252 11.3475C8.45114 15.1464 12.316 15.8317 13.8892 15.9972C14.1174 16.0205 14.336 15.8995 14.4373 15.6937L15.9251 12.5348C16.0519 12.2809 15.9654 11.9722 15.7251 11.8212L12.6696 9.85401C12.4518 9.7176 12.1687 9.74963 11.9869 9.93125L10.7516 11.1671C10.6314 11.2881 10.4617 11.3464 10.2925 11.3246C9.68066 11.2468 8.15349 10.902 6.62632 9.37484Z" fill="#1800FF"/>
<path d="M12.6906 8.55189C12.3859 8.55189 12.1389 8.30488 12.1389 8.00017C12.1363 5.71592 10.2852 3.86482 8.00094 3.86224C7.69623 3.86224 7.44922 3.61522 7.44922 3.31051C7.44922 3.0058 7.69623 2.75879 8.00094 2.75879C10.8944 2.76198 13.2391 5.10676 13.2423 8.00017C13.2423 8.30488 12.9953 8.55189 12.6906 8.55189Z" fill="#1800FF"/>
<path d="M15.4492 8.55172C15.1445 8.55172 14.8975 8.30471 14.8975 8C14.8932 4.1929 11.808 1.10771 8.00094 1.10345C7.69623 1.10345 7.44922 0.856433 7.44922 0.551724C7.44922 0.247015 7.69623 0 8.00094 0C12.4172 0.00486507 15.9961 3.58374 16.0009 8C16.0009 8.14633 15.9428 8.28666 15.8393 8.39013C15.7359 8.4936 15.5955 8.55172 15.4492 8.55172Z" fill="#1800FF"/>
</svg>
