<svg width="1440" height="579" viewBox="0 0 1440 579" fill="none" xmlns="http://www.w3.org/2000/svg">
<rect width="1440" height="579" fill="#E2F3F3"/>
<path d="M458.552 388.479L475 360.138L491.448 388.479H458.552Z" stroke="#A8DADC" stroke-opacity="0.4" stroke-width="3"/>
<path d="M1266.48 111.912L1276 95.5089L1285.52 111.912H1266.48Z" stroke="#A8DADC" stroke-opacity="0.4" stroke-width="3"/>
<path d="M1402.48 49.2375L1412 32.8341L1421.52 49.2375H1402.48Z" stroke="#A8DADC" stroke-opacity="0.4" stroke-width="3"/>
<path d="M1368.38 303.301L1361.39 285.683L1380.23 288.47L1368.38 303.301Z" stroke="#A8DADC" stroke-opacity="0.4" stroke-width="3"/>
<path d="M1243.05 380.571L1236.06 362.952L1254.9 365.74L1243.05 380.571Z" stroke="#A8DADC" stroke-opacity="0.4" stroke-width="3"/>
<path d="M933.225 388.818L935.099 372.177L948.648 382.113L933.225 388.818Z" stroke="#A8DADC" stroke-opacity="0.4" stroke-width="3"/>
<path d="M790.044 88.028L804.85 80.0633L804.38 96.8017L790.044 88.028Z" stroke="#A8DADC" stroke-opacity="0.4" stroke-width="3"/>
<path d="M1040.79 469.799L1055.6 461.835L1055.13 478.573L1040.79 469.799Z" stroke="#A8DADC" stroke-opacity="0.4" stroke-width="3"/>
<path d="M1335.79 482.733L1350.6 474.768L1350.13 491.507L1335.79 482.733Z" stroke="#A8DADC" stroke-opacity="0.4" stroke-width="3"/>
<path d="M541.99 62.2548L543.864 45.6139L557.413 55.5491L541.99 62.2548Z" stroke="#A8DADC" stroke-opacity="0.4" stroke-width="3"/>
<path d="M267.99 369.662L269.864 353.021L283.413 362.956L267.99 369.662Z" stroke="#A8DADC" stroke-opacity="0.4" stroke-width="3"/>
<path d="M26.9899 478.099L28.864 461.459L42.413 471.394L26.9899 478.099Z" stroke="#A8DADC" stroke-opacity="0.4" stroke-width="3"/>
<path d="M290.99 137.862L292.864 121.221L306.413 131.156L290.99 137.862Z" stroke="#A8DADC" stroke-opacity="0.4" stroke-width="3"/>
<path d="M185.99 437.311L187.864 420.671L201.413 430.606L185.99 437.311Z" stroke="#A8DADC" stroke-opacity="0.4" stroke-width="3"/>
<path d="M391.177 481.888L404.136 471.201L406.96 487.708L391.177 481.888Z" stroke="#A8DADC" stroke-opacity="0.4" stroke-width="3"/>
<path d="M231.686 231.498L220.93 209.869L245.15 211.184L231.686 231.498Z" stroke="#A8DADC" stroke-opacity="0.4" stroke-width="3"/>
<path d="M755.686 37.5039L744.93 15.8747L769.15 17.1901L755.686 37.5039Z" stroke="#A8DADC" stroke-opacity="0.4" stroke-width="3"/>
<path d="M1237.69 243.437L1226.93 221.807L1251.15 223.123L1237.69 243.437Z" stroke="#A8DADC" stroke-opacity="0.4" stroke-width="3"/>
<path d="M98.6864 347.896L87.93 326.266L112.15 327.582L98.6864 347.896Z" stroke="#A8DADC" stroke-opacity="0.4" stroke-width="3"/>
<path d="M719.686 426.488L708.93 404.859L733.15 406.175L719.686 426.488Z" stroke="#A8DADC" stroke-opacity="0.4" stroke-width="3"/>
<path d="M45.8787 230.035L39.7135 206.696L63.1734 212.83L45.8787 230.035Z" stroke="#A8DADC" stroke-opacity="0.4" stroke-width="3"/>
<path d="M70.3982 43.4669L64.233 20.1279L87.693 26.2613L70.3982 43.4669Z" stroke="#A8DADC" stroke-opacity="0.4" stroke-width="3"/>
<path d="M977.398 61.3741L971.233 38.0351L994.693 44.1685L977.398 61.3741Z" stroke="#A8DADC" stroke-opacity="0.4" stroke-width="3"/>
<path d="M371.398 43.4669L365.233 20.1279L388.693 26.2613L371.398 43.4669Z" stroke="#A8DADC" stroke-opacity="0.4" stroke-width="3"/>
<path d="M1108.4 120.07L1102.23 96.7314L1125.69 102.865L1108.4 120.07Z" stroke="#A8DADC" stroke-opacity="0.4" stroke-width="3"/>
</svg>
