<svg width="20" height="20" viewBox="0 0 20 20" fill="none" xmlns="http://www.w3.org/2000/svg">
<g clip-path="url(#clip0)">
<path d="M19.1666 0.833252H0.833348C0.373095 0.833252 0 1.20635 0 1.66655C0 2.12676 0.373095 2.4999 0.833348 2.4999H19.1667C19.6269 2.4999 20 2.12681 20 1.66655C20 1.2063 19.6269 0.833252 19.1666 0.833252Z" fill="#1800FF"/>
<path d="M19.1666 9.16675H0.833348C0.373095 9.16675 0 9.53985 0 10.0001C0 10.4604 0.373095 10.8335 0.833348 10.8335H19.1667C19.6269 10.8335 20 10.4604 20 10.0001C20 9.53985 19.6269 9.16675 19.1666 9.16675Z" fill="#1800FF"/>
<path d="M19.1666 17.5H0.833348C0.373095 17.5 0 17.8731 0 18.3334C0 18.7936 0.373095 19.1667 0.833348 19.1667H19.1667C19.6269 19.1667 20 18.7936 20 18.3334C20 17.8731 19.6269 17.5 19.1666 17.5Z" fill="#1800FF"/>
</g>
<defs>
<clipPath id="clip0">
<rect width="20" height="20" fill="white"/>
</clipPath>
</defs>
</svg>
